<?xml version="1.0" encoding="utf-8"?>
<!-- Generator: Adobe Illustrator 19.2.1, SVG Export Plug-In . SVG Version: 6.00 Build 0)  -->
<!DOCTYPE svg PUBLIC "-//W3C//DTD SVG 1.1//EN" "http://www.w3.org/Graphics/SVG/1.1/DTD/svg11.dtd">
<svg version="1.1" id="Layer_1" xmlns="http://www.w3.org/2000/svg" xmlns:xlink="http://www.w3.org/1999/xlink" x="0px" y="0px"
	 viewBox="0 0 15 15.7" style="enable-background:new 0 0 15 15.7;" xml:space="preserve">
<g>
	<g>
		<path d="M1,5.6c-0.3,0-0.5,0.1-0.7,0.3C0.1,6,0,6.2,0,6.5v3.9c0,0.3,0.1,0.5,0.3,0.7c0.2,0.2,0.4,0.3,0.7,0.3
			c0.3,0,0.5-0.1,0.7-0.3c0.2-0.2,0.3-0.4,0.3-0.7V6.5c0-0.3-0.1-0.5-0.3-0.6C1.4,5.7,1.2,5.6,1,5.6z M3.3,11.7
			c0,0.3,0.1,0.5,0.3,0.7c0.2,0.2,0.4,0.3,0.7,0.3H5l0,2c0,0.3,0.1,0.5,0.3,0.7c0.2,0.2,0.4,0.3,0.7,0.3c0.3,0,0.5-0.1,0.7-0.3
			c0.2-0.2,0.3-0.4,0.3-0.7v-2h1.3v2c0,0.3,0.1,0.5,0.3,0.7c0.2,0.2,0.4,0.3,0.7,0.3c0.3,0,0.5-0.1,0.7-0.3C9.9,15.3,10,15,10,14.8
			v-2h0.7c0.3,0,0.5-0.1,0.7-0.3c0.2-0.2,0.3-0.4,0.3-0.7v-6H3.3V11.7z M9.6,1.4l0.7-1.2c0-0.1,0-0.1,0-0.2c-0.1,0-0.1,0-0.2,0.1
			L9.4,1.3C8.8,1,8.2,0.9,7.5,0.9C6.8,0.9,6.2,1,5.6,1.3L5,0.1C4.9,0,4.9,0,4.8,0c-0.1,0-0.1,0.1,0,0.2l0.7,1.2
			C4.7,1.7,4.2,2.2,3.8,2.8C3.4,3.4,3.2,4,3.2,4.7h8.5c0-0.7-0.2-1.4-0.6-1.9C10.8,2.2,10.3,1.7,9.6,1.4z M14.7,5.8
			c-0.2-0.2-0.4-0.3-0.7-0.3c-0.3,0-0.5,0.1-0.7,0.3c-0.2,0.2-0.3,0.4-0.3,0.7v3.9c0,0.3,0.1,0.5,0.3,0.7c0.2,0.2,0.4,0.3,0.7,0.3
			c0.3,0,0.5-0.1,0.7-0.3c0.2-0.2,0.3-0.4,0.3-0.7V6.5C15,6.2,14.9,6,14.7,5.8z"/>
	</g>
</g>
</svg>
