<?xml version="1.0" encoding="utf-8"?>
<!-- Generator: Adobe Illustrator 19.2.1, SVG Export Plug-In . SVG Version: 6.00 Build 0)  -->
<!DOCTYPE svg PUBLIC "-//W3C//DTD SVG 1.1//EN" "http://www.w3.org/Graphics/SVG/1.1/DTD/svg11.dtd">
<svg version="1.1" id="download_icon" xmlns="http://www.w3.org/2000/svg" xmlns:xlink="http://www.w3.org/1999/xlink" x="0px"
	 y="0px" viewBox="0 0 98 98" style="enable-background:new 0 0 98 98;" xml:space="preserve">
<style type="text/css">
	.st0{fill:#F7FAFB;}
	.st1{clip-path:url(#SVGID_2_);fill:#D8E9EF;}
	.st2{fill:#00BADB;}
	.st3{fill:none;stroke:#F7FBFD;}
	.st4{fill:none;enable-background:new    ;}
	.st5{fill:#F7FBFD;}
</style>
<circle class="st0" cx="49" cy="49" r="49"/>
<g>
	<defs>
		<circle id="SVGID_1_" cx="49" cy="49" r="49"/>
	</defs>
	<clipPath id="SVGID_2_">
		<use xlink:href="#SVGID_1_"  style="overflow:visible;"/>
	</clipPath>
	<path class="st1" d="M65,24H34L-5,61v56l23-2l47-38V24z"/>
</g>
<path id="phone" class="st2" d="M33,63.9h32V32H33V63.9z M62.6,24H36c-1.5,0-3,1.2-3,2.7c0,0,0,0,0,0V30h32v-3.3
	c0-1.5-1.2-2.7-2.7-2.7C62.3,24,62.6,24,62.6,24z M33,75.4c0,1.5,1,2.5,2.5,2.5c0,0,0,0,0,0h26.6c1.5,0,2.9-1,2.9-2.5c0,0,0,0,0,0
	V66H33V75.4z M46,70h6v2h-6V70z"/>
<circle class="st3" cx="49.5" cy="47.5" r="10.5"/>
<path class="st4" d="z"/>
<path class="st5" d="M53.7,46.8c-2,0-3.3,0-4.5,0c0,0.1-0.1,0.1-0.1,0.2c1.5,0,3,0,4.5,0c-0.2,0.6-0.5,1.3-0.5,1.5
	c-0.5,1.4-1.8,2.3-3.4,2.3c-0.5,0-1.1,0-1.7,0c-0.1,0.2-0.2,0.5-0.3,1c-0.5,1.5-1.9,2.4-3.5,2.4c-0.8,0-1.6,0-2.3,0
	c1.4-4.1,2.8-8.2,3-8.6c0.6-1.8,2.2-2.9,4.2-2.9c2.7,0,5.7,0,8.8,0c-0.2,0.6-0.4,1.2-0.6,1.8C56.7,45.9,55.3,46.8,53.7,46.8z"/>
</svg>
