<?xml version="1.0" encoding="utf-8"?>
<!-- Generator: Adobe Illustrator 19.2.1, SVG Export Plug-In . SVG Version: 6.00 Build 0)  -->
<!DOCTYPE svg PUBLIC "-//W3C//DTD SVG 1.1//EN" "http://www.w3.org/Graphics/SVG/1.1/DTD/svg11.dtd">
<svg version="1.1" id="Layer_1" xmlns="http://www.w3.org/2000/svg" xmlns:xlink="http://www.w3.org/1999/xlink" x="0px" y="0px"
	 viewBox="0 0 9 16" style="enable-background:new 0 0 9 16;" xml:space="preserve">
<path d="M8.7,0L6.5,0c-2.4,0-4,1.5-4,3.9v1.8H0.3C0.2,5.8,0,5.9,0,6.1v2.6C0,8.9,0.2,9,0.3,9h2.2v6.6c0,0.2,0.2,0.3,0.3,0.3h2.8
	C5.9,16,6,15.9,6,15.7V9h2.5c0.2,0,0.3-0.1,0.3-0.3l0-2.6c0-0.1,0-0.2-0.1-0.2C8.7,5.8,8.6,5.8,8.6,5.8H6V4.2c0-0.7,0.2-1.1,1.2-1.1
	l1.5,0C8.8,3.1,9,3,9,2.8V0.3C9,0.1,8.8,0,8.7,0z"/>
</svg>
