<?xml version="1.0" encoding="utf-8"?>
<!-- Generator: Adobe Illustrator 19.2.1, SVG Export Plug-In . SVG Version: 6.00 Build 0)  -->
<!DOCTYPE svg PUBLIC "-//W3C//DTD SVG 1.1//EN" "http://www.w3.org/Graphics/SVG/1.1/DTD/svg11.dtd">
<svg version="1.1" id="Layer_1" xmlns="http://www.w3.org/2000/svg" xmlns:xlink="http://www.w3.org/1999/xlink" x="0px" y="0px"
	 viewBox="0 0 35 35" style="enable-background:new 0 0 35 35;" xml:space="preserve">
<style type="text/css">
	.st0{fill:#010202;}
</style>
<path class="st0" d="M17.5,0C7.8,0,0,7.8,0,17.5S7.8,35,17.5,35S35,27.2,35,17.5S27.2,0,17.5,0z M25.4,15.9c-3.5,0-5.7,0-7.8,0
	c0,0.1-0.1,0.2-0.1,0.3c2.6,0,5.2,0,7.8,0c-0.4,1.1-0.8,2.2-0.9,2.7c-0.9,2.5-3.1,4-5.9,4c-0.9,0-1.9,0-2.9,0
	c-0.1,0.4-0.3,0.8-0.6,1.7c-0.9,2.6-3.3,4.2-6.2,4.2c-1.4,0-2.8,0-4.1,0c2.5-7.2,4.9-14.3,5.2-15c1-3.1,3.9-5.1,7.4-5.1
	c4.7,0,10,0,15.3,0c-0.4,1.1-0.7,2.1-1,3.1C30.7,14.5,28.2,15.9,25.4,15.9z"/>
</svg>
