<?xml version="1.0" encoding="utf-8"?>
<!-- Generator: Adobe Illustrator 19.2.1, SVG Export Plug-In . SVG Version: 6.00 Build 0)  -->
<!DOCTYPE svg PUBLIC "-//W3C//DTD SVG 1.1//EN" "http://www.w3.org/Graphics/SVG/1.1/DTD/svg11.dtd">
<svg version="1.1" id="register_icon" xmlns="http://www.w3.org/2000/svg" xmlns:xlink="http://www.w3.org/1999/xlink" x="0px"
	 y="0px" viewBox="0 0 98 98" style="enable-background:new 0 0 98 98;" xml:space="preserve">
<style type="text/css">
	.st0{fill:#F7FAFB;}
	.st1{clip-path:url(#SVGID_2_);fill:#D7E9EF;}
	.st2{fill:#00BADB;}
</style>
<circle class="st0" cx="49" cy="49" r="49"/>
<g>
	<defs>
		<circle id="SVGID_1_" cx="49" cy="49" r="49"/>
	</defs>
	<clipPath id="SVGID_2_">
		<use xlink:href="#SVGID_1_"  style="overflow:visible;"/>
	</clipPath>
	<path class="st1" d="M65,24H34L-5,61v56l23-2l47-38V24z"/>
</g>
<path id="phone" class="st2" d="M33,63.9h32V32H33V63.9z M62.3,24H35.7c-1.5,0-2.7,1.2-2.7,2.7c0,0,0,0,0,0V30h32v-3.3
	C65,25.2,63.8,24,62.3,24C62.3,24,62.3,24,62.3,24z M33,75.3c0,1.5,1.2,2.7,2.7,2.7c0,0,0,0,0,0h26.6c1.5,0,2.7-1.2,2.7-2.7
	c0,0,0,0,0,0V66H33V75.3z M46,70h6v2h-6V70z M39,41h20v3H39V41z M39,47h20v3H39V47z M39,53h20v3H39V53z"/>
</svg>
