<?xml version="1.0" encoding="utf-8"?>
<!-- Generator: Adobe Illustrator 19.2.1, SVG Export Plug-In . SVG Version: 6.00 Build 0)  -->
<!DOCTYPE svg PUBLIC "-//W3C//DTD SVG 1.1//EN" "http://www.w3.org/Graphics/SVG/1.1/DTD/svg11.dtd">
<svg version="1.1" id="Layer_1" xmlns="http://www.w3.org/2000/svg" xmlns:xlink="http://www.w3.org/1999/xlink" x="0px" y="0px"
	 viewBox="0 0 21 12" style="enable-background:new 0 0 21 12;" xml:space="preserve">
<path d="M18.1,7.6c0.7,0.7,1.4,1.3,2.1,2.1c0.3,0.3,0.5,0.7,0.7,1.1c0.3,0.6,0,1.2-0.5,1.2l-3.1,0c-0.8,0.1-1.4-0.3-1.9-0.8
	c-0.4-0.4-0.8-0.9-1.2-1.3c-0.2-0.2-0.3-0.4-0.6-0.5c-0.4-0.3-0.8-0.2-1,0.2c-0.2,0.4-0.3,0.9-0.3,1.4c0,0.7-0.3,0.9-1,1
	c-1.5,0.1-3-0.2-4.4-1C5.7,10.3,4.8,9.4,4,8.3c-1.6-2.2-2.8-4.5-3.9-7C-0.1,0.7,0,0.4,0.6,0.4c1,0,2,0,3,0C4,0.4,4.3,0.7,4.5,1
	c0.5,1.3,1.2,2.6,2,3.8c0.2,0.3,0.4,0.6,0.8,0.9c0.4,0.2,0.6,0.2,0.8-0.2c0.1-0.3,0.2-0.5,0.2-0.8c0.1-0.9,0.1-1.9,0-2.8
	c-0.1-0.6-0.4-1-1-1.1C6.9,0.7,7,0.6,7.1,0.5C7.3,0.2,7.6,0,8,0h3.5c0.5,0.1,0.7,0.4,0.7,0.9l0,3.9c0,0.2,0.1,0.8,0.5,1
	c0.3,0.1,0.5-0.1,0.7-0.3c0.8-0.9,1.4-1.9,1.9-3c0.2-0.5,0.4-1,0.6-1.5c0.1-0.4,0.4-0.5,0.8-0.5l3.3,0c0.1,0,0.2,0,0.3,0
	c0.6,0.1,0.7,0.3,0.5,0.9c-0.3,0.9-0.8,1.6-1.3,2.3c-0.6,0.8-1.1,1.5-1.7,2.3C17.4,6.7,17.4,7,18.1,7.6L18.1,7.6z"/>
</svg>
