<?xml version="1.0" encoding="UTF-8"?><!DOCTYPE svg PUBLIC "-//W3C//DTD SVG 1.1//EN" "http://www.w3.org/Graphics/SVG/1.1/DTD/svg11.dtd"><svg xmlns="http://www.w3.org/2000/svg" xmlns:xlink="http://www.w3.org/1999/xlink" height="662" viewBox="0 0 565 662" width="565"><svg height="118.7" viewBox="0 0 557 119" width="556.6" x="4" y="4"><path d="M24.5 2.6H2.8l5.1 19.8h21.5zm76 0h22.1v115.5h-22.1zm99.7 68.5h-.3L169.2 2.6H145v115.5h20.2V43.6h.3l33.8 74.5h21.1V2.6h-20.2zM308.4 2.6h-73.6v19.5h25.7v96h22.1v-96h25.8zm28 0l-28.6 115.5H329l6.2-24.3h30.6l5.6 24.3h21.1L364.7 2.6h-28.3zm2.9 71.7l10.9-46.7h.3l10.7 46.7h-21.9zm99.8-53.8c8 0 13.4 4.8 13.4 19.7h22.1C473.8 14 461.7 1 439.1 1c-21.4 0-36.5 10.2-36.5 38.7V81c0 28.5 15 38.7 36.5 38.7 8.3 0 14.7-4.5 20.6-11.2l3.4 9.6h11.5V58.9H437v18.2h15.5v7c0 9.9-5.1 16-13.4 16-8.8 0-14.4-3.5-14.4-16.3v-47c0-12.8 5.6-16.3 14.4-16.3zm76.5 78.1V68.2h29.3V48.7h-29.3V22.1H554V2.6h-60.5v115.5h62.1V98.6zM66 2.6L36.5 118.1h21L86.9 2.6z"/></svg><svg height="98" viewBox="0 0 98 98" width="98" x="4" y="127"><style>.st0{fill:#f7fafb}.st1{clip-path:url(#SVGID_2_);fill:#d7e9ef}.st2{fill:#00badb}</style><circle class="st0" cx="49" cy="49" r="49"/><defs><circle id="SVGID_1_" cx="49" cy="49" r="49"/></defs><clipPath id="SVGID_2_"><use xlink:href="#SVGID_1_" overflow="visible"/></clipPath><path class="st1" d="M65 24H34L-5 61v56l23-2 47-38V24z"/><path id="phone" class="st2" d="M33 63.9h32V32H33v31.9zM62.3 24H35.7c-1.5 0-2.7 1.2-2.7 2.7V30h32v-3.3c0-1.5-1.2-2.7-2.7-2.7zM33 75.3c0 1.5 1.2 2.7 2.7 2.7h26.6c1.5 0 2.7-1.2 2.7-2.7V66H33v9.3zM46 70h6v2h-6v-2zm-5.7-22.3L42 46l4.9 4.9-1.7 1.7-4.9-4.9zM57 42l1.7 1.7-11.2 11.2-1.7-1.7L57 42z"/></svg><svg height="98" viewBox="0 0 98 98" width="98" x="4" y="229"><style>.st0{fill:#f7fafb}.st1{clip-path:url(#SVGID_2_);fill:#d8e9ef}.st2{fill:#00badb}.st3{fill:none;stroke:#f7fbfd}.st4{fill:none;enable-background:new}.st5{fill:#f7fbfd}</style><circle class="st0" cx="49" cy="49" r="49"/><defs><circle id="SVGID_1_" cx="49" cy="49" r="49"/></defs><clipPath id="SVGID_2_"><use xlink:href="#SVGID_1_" overflow="visible"/></clipPath><path class="st1" d="M65 24H34L-5 61v56l23-2 47-38V24z"/><path id="phone" class="st2" d="M33 63.9h32V32H33v31.9zM62.6 24H36c-1.5 0-3 1.2-3 2.7V30h32v-3.3c0-1.5-1.2-2.7-2.7-2.7h.3zM33 75.4c0 1.5 1 2.5 2.5 2.5h26.6c1.5 0 2.9-1 2.9-2.5V66H33v9.4zM46 70h6v2h-6v-2z"/><circle class="st3" cx="49.5" cy="47.5" r="10.5"/><path class="st5" d="M53.7 46.8h-4.5c0 .1-.1.1-.1.2h4.5c-.2.6-.5 1.3-.5 1.5-.5 1.4-1.8 2.3-3.4 2.3H48c-.1.2-.2.5-.3 1-.5 1.5-1.9 2.4-3.5 2.4h-2.3c1.4-4.1 2.8-8.2 3-8.6.6-1.8 2.2-2.9 4.2-2.9h8.8l-.6 1.8c-.6 1.4-2 2.3-3.6 2.3z"/></svg><svg height="98" viewBox="0 0 98 98" width="98" x="4" y="331"><style>.st0{fill:#f7fafb}.st1{clip-path:url(#SVGID_2_);fill:#d7e9ef}.st2{fill:#00badb}</style><circle class="st0" cx="49" cy="49" r="49"/><defs><circle id="SVGID_1_" cx="49" cy="49" r="49"/></defs><clipPath id="SVGID_2_"><use xlink:href="#SVGID_1_" overflow="visible"/></clipPath><path class="st1" d="M65 24H34L-5 61v56l23-2 47-38V24z"/><path id="phone" class="st2" d="M33 63.9h32V32H33v31.9zM62.3 24H35.7c-1.5 0-2.7 1.2-2.7 2.7V30h32v-3.3c0-1.5-1.2-2.7-2.7-2.7zM33 75.3c0 1.5 1.2 2.7 2.7 2.7h26.6c1.5 0 2.7-1.2 2.7-2.7V66H33v9.3zM46 70h6v2h-6v-2zm-7-29h20v3H39v-3zm0 6h20v3H39v-3zm0 6h20v3H39v-3z"/></svg><svg height="35" viewBox="0 0 35 35" width="35" x="4" y="433"><style>.st0{fill:#010202}</style><path class="st0" d="M17.5 0C7.8 0 0 7.8 0 17.5S7.8 35 17.5 35 35 27.2 35 17.5 27.2 0 17.5 0zm7.9 15.9h-7.8c0 .1-.1.2-.1.3h7.8c-.4 1.1-.8 2.2-.9 2.7-.9 2.5-3.1 4-5.9 4h-2.9c-.1.4-.3.8-.6 1.7-.9 2.6-3.3 4.2-6.2 4.2H4.7c2.5-7.2 4.9-14.3 5.2-15 1-3.1 3.9-5.1 7.4-5.1h15.3c-.4 1.1-.7 2.1-1 3.1-.9 2.7-3.4 4.1-6.2 4.1z"/></svg><svg height="19" viewBox="0 0 30 19" width="30" x="4" y="472"><style>.st0{fill-rule:evenodd;clip-rule:evenodd}</style><path class="st0" d="M0 0v3h30V0H0zm0 11h30V8H0v3zm0 8h30v-3H0v3z"/></svg><svg height="25.3" viewBox="0 0 15 26" width="14.1" x="4" y="495"><style>.st0{fill:#1d1d1b}</style><path class="st0" d="M1.4 25.3L0 24l11.3-11.8L0 1.4 1.4 0l12.7 12.1z"/></svg><svg height="23.3" viewBox="0 0 24 24" width="23.6" x="4" y="525"><style>.st0{fill-rule:evenodd;clip-rule:evenodd}</style><path class="st0" d="M23.6 20.9l-9.7-9.3 9.6-9.5L21.3 0l-9.5 9.6L2.2.3 0 2.4l9.6 9.3-9.5 9.5 2.1 2.1 9.6-9.5 9.6 9.3z"/></svg><svg height="22" viewBox="0 0 18 22" width="18" x="4" y="553"><path d="M17.7 10.2L14 8.1 11 11l2.7 2.6 3.9-2.3c.2-.1.3-.3.3-.6.1-.2 0-.4-.2-.5zm-4.3-3.4l-4-2.3L.6 0l9.9 9.6 2.9-2.8zM.7 22l8.7-4.8 3.7-2.2-2.6-2.5L.7 22zM0 1.2v19.4l10-9.7L0 1.2z"/></svg><svg height="12" viewBox="0 0 21 12" width="21" x="4" y="579"><path d="M18.1 7.6c.7.7 1.4 1.3 2.1 2.1.3.3.5.7.7 1.1.3.6 0 1.2-.5 1.2h-3.1c-.8.1-1.4-.3-1.9-.8-.4-.4-.8-.9-1.2-1.3-.2-.2-.3-.4-.6-.5-.4-.3-.8-.2-1 .2-.2.4-.3.9-.3 1.4 0 .7-.3.9-1 1-1.5.1-3-.2-4.4-1-1.2-.7-2.1-1.6-2.9-2.7-1.6-2.2-2.8-4.5-3.9-7C-.1.7 0 .4.6.4h3c.4 0 .7.3.9.6.5 1.3 1.2 2.6 2 3.8.2.3.4.6.8.9.4.2.6.2.8-.2.1-.3.2-.5.2-.8.1-.9.1-1.9 0-2.8-.1-.6-.4-1-1-1.1C6.9.7 7 .6 7.1.5c.2-.3.5-.5.9-.5h3.5c.5.1.7.4.7.9v3.9c0 .2.1.8.5 1 .3.1.5-.1.7-.3.8-.9 1.4-1.9 1.9-3l.6-1.5c.1-.4.4-.5.8-.5h3.6c.6.1.7.3.5.9-.3.9-.8 1.6-1.3 2.3-.6.8-1.1 1.5-1.7 2.3-.4.7-.4 1 .3 1.6z" fill="#00badb"/></svg><svg height="13" viewBox="0 0 16 13" width="16" x="4" y="595"><path d="M15.6.2c-.6.4-1.3.6-2.1.8-.6-.6-1.5-1-2.4-1-1.8 0-3.3 1.5-3.3 3.3 0 .3 0 .5.1.7C5.2 3.9 2.7 2.6 1.1.6c-.3.5-.4 1-.4 1.6 0 1.1.6 2.1 1.5 2.7-.5 0-1-.2-1.5-.4 0 1.6 1.1 2.9 2.6 3.2-.3.2-.6.2-.9.2-.2 0-.4 0-.6-.1.4 1.3 1.6 2.3 3.1 2.3-1.1.9-2.5 1.4-4.1 1.4H0c1.5 1 3.2 1.5 5 1.5 6 0 9.3-5 9.3-9.3v-.4c.6-.5 1.2-1 1.6-1.7-.6.3-1.2.4-1.9.5.8-.5 1.3-1.1 1.6-1.9z" fill="#00badb"/></svg><svg height="16" viewBox="0 0 9 16" width="9" x="4" y="612"><path d="M8.7 0H6.5c-2.4 0-4 1.5-4 3.9v1.8H.3c-.1.1-.3.2-.3.4v2.6c0 .2.2.3.3.3h2.2v6.6c0 .2.2.3.3.3h2.8c.3.1.4 0 .4-.2V9h2.5c.2 0 .3-.1.3-.3V6.1c0-.1 0-.2-.1-.2 0-.1-.1-.1-.1-.1H6V4.2c0-.7.2-1.1 1.2-1.1h1.5c.1 0 .3-.1.3-.3V.3c0-.2-.2-.3-.3-.3z" fill="#00badb"/></svg><svg height="15.7" viewBox="0 0 15 16" width="15" x="4" y="632"><path d="M1 5.6c-.3 0-.5.1-.7.3-.2.1-.3.3-.3.6v3.9c0 .3.1.5.3.7.2.2.4.3.7.3.3 0 .5-.1.7-.3.2-.2.3-.4.3-.7V6.5c0-.3-.1-.5-.3-.6-.3-.2-.5-.3-.7-.3zm2.3 6.1c0 .3.1.5.3.7.2.2.4.3.7.3H5v2c0 .3.1.5.3.7.2.2.4.3.7.3.3 0 .5-.1.7-.3.2-.2.3-.4.3-.7v-2h1.3v2c0 .3.1.5.3.7.2.2.4.3.7.3.3 0 .5-.1.7-.3-.1-.1 0-.4 0-.6v-2h.7c.3 0 .5-.1.7-.3.2-.2.3-.4.3-.7v-6H3.3v5.9zM9.6 1.4l.7-1.2V0c-.1 0-.1 0-.2.1l-.7 1.2C8.8 1 8.2.9 7.5.9s-1.3.1-1.9.4L5 .1C4.9 0 4.9 0 4.8 0s-.1.1 0 .2l.7 1.2c-.8.3-1.3.8-1.7 1.4-.4.6-.6 1.2-.6 1.9h8.5c0-.7-.2-1.4-.6-1.9-.3-.6-.8-1.1-1.5-1.4zm5.1 4.4c-.2-.2-.4-.3-.7-.3-.3 0-.5.1-.7.3-.2.2-.3.4-.3.7v3.9c0 .3.1.5.3.7.2.2.4.3.7.3.3 0 .5-.1.7-.3.2-.2.3-.4.3-.7V6.5c0-.3-.1-.5-.3-.7z"/></svg><svg height="5.5" viewBox="0 0 9 6" width="8.6" x="4" y="652"><style>.st0{fill:#1d1d1b}</style><path class="st0" d="M4.3 5.5L0 1.5 1.4 0l2.9 2.8 3-2.8 1.3 1.5z"/></svg></svg>