<svg xmlns="http://www.w3.org/2000/svg" viewBox="0 0 15 15.7"><path d="M1 5.6c-.3 0-.5.1-.7.3-.2.1-.3.3-.3.6v3.9c0 .3.1.5.3.7.2.2.4.3.7.3.3 0 .5-.1.7-.3.2-.2.3-.4.3-.7V6.5c0-.3-.1-.5-.3-.6-.3-.2-.5-.3-.7-.3zm2.3 6.1c0 .3.1.5.3.7.2.2.4.3.7.3H5v2c0 .3.1.5.3.7.2.2.4.3.7.3.3 0 .5-.1.7-.3.2-.2.3-.4.3-.7v-2h1.3v2c0 .3.1.5.3.7.2.2.4.3.7.3.3 0 .5-.1.7-.3-.1-.1 0-.4 0-.6v-2h.7c.3 0 .5-.1.7-.3.2-.2.3-.4.3-.7v-6H3.3v5.9zM9.6 1.4l.7-1.2V0c-.1 0-.1 0-.2.1l-.7 1.2C8.8 1 8.2.9 7.5.9s-1.3.1-1.9.4L5 .1C4.9 0 4.9 0 4.8 0s-.1.1 0 .2l.7 1.2c-.8.3-1.3.8-1.7 1.4-.4.6-.6 1.2-.6 1.9h8.5c0-.7-.2-1.4-.6-1.9-.3-.6-.8-1.1-1.5-1.4zm5.1 4.4c-.2-.2-.4-.3-.7-.3-.3 0-.5.1-.7.3-.2.2-.3.4-.3.7v3.9c0 .3.1.5.3.7.2.2.4.3.7.3.3 0 .5-.1.7-.3.2-.2.3-.4.3-.7V6.5c0-.3-.1-.5-.3-.7z"/></svg>