<svg id="confirming_icon" xmlns="http://www.w3.org/2000/svg" xmlns:xlink="http://www.w3.org/1999/xlink" viewBox="0 0 98 98"><style>.st0{fill:#f7fafb}.st1{clip-path:url(#SVGID_2_);fill:#d7e9ef}.st2{fill:#00badb}</style><circle class="st0" cx="49" cy="49" r="49"/><defs><circle id="SVGID_1_" cx="49" cy="49" r="49"/></defs><clipPath id="SVGID_2_"><use xlink:href="#SVGID_1_" overflow="visible"/></clipPath><path class="st1" d="M65 24H34L-5 61v56l23-2 47-38V24z"/><path id="phone" class="st2" d="M33 63.9h32V32H33v31.9zM62.3 24H35.7c-1.5 0-2.7 1.2-2.7 2.7V30h32v-3.3c0-1.5-1.2-2.7-2.7-2.7zM33 75.3c0 1.5 1.2 2.7 2.7 2.7h26.6c1.5 0 2.7-1.2 2.7-2.7V66H33v9.3zM46 70h6v2h-6v-2zm-5.7-22.3L42 46l4.9 4.9-1.7 1.7-4.9-4.9zM57 42l1.7 1.7-11.2 11.2-1.7-1.7L57 42z"/></svg>