<svg id="download_icon" xmlns="http://www.w3.org/2000/svg" xmlns:xlink="http://www.w3.org/1999/xlink" viewBox="0 0 98 98"><style>.st0{fill:#f7fafb}.st1{clip-path:url(#SVGID_2_);fill:#d8e9ef}.st2{fill:#00badb}.st3{fill:none;stroke:#f7fbfd}.st4{fill:none;enable-background:new}.st5{fill:#f7fbfd}</style><circle class="st0" cx="49" cy="49" r="49"/><defs><circle id="SVGID_1_" cx="49" cy="49" r="49"/></defs><clipPath id="SVGID_2_"><use xlink:href="#SVGID_1_" overflow="visible"/></clipPath><path class="st1" d="M65 24H34L-5 61v56l23-2 47-38V24z"/><path id="phone" class="st2" d="M33 63.9h32V32H33v31.9zM62.6 24H36c-1.5 0-3 1.2-3 2.7V30h32v-3.3c0-1.5-1.2-2.7-2.7-2.7h.3zM33 75.4c0 1.5 1 2.5 2.5 2.5h26.6c1.5 0 2.9-1 2.9-2.5V66H33v9.4zM46 70h6v2h-6v-2z"/><circle class="st3" cx="49.5" cy="47.5" r="10.5"/><path class="st5" d="M53.7 46.8h-4.5c0 .1-.1.1-.1.2h4.5c-.2.6-.5 1.3-.5 1.5-.5 1.4-1.8 2.3-3.4 2.3H48c-.1.2-.2.5-.3 1-.5 1.5-1.9 2.4-3.5 2.4h-2.3c1.4-4.1 2.8-8.2 3-8.6.6-1.8 2.2-2.9 4.2-2.9h8.8l-.6 1.8c-.6 1.4-2 2.3-3.6 2.3z"/></svg>