<svg xmlns="http://www.w3.org/2000/svg" viewBox="0 0 556.6 118.7"><path d="M24.5 2.6H2.8l5.1 19.8h21.5zm76 0h22.1v115.5h-22.1zm99.7 68.5h-.3L169.2 2.6H145v115.5h20.2V43.6h.3l33.8 74.5h21.1V2.6h-20.2zM308.4 2.6h-73.6v19.5h25.7v96h22.1v-96h25.8zm28 0l-28.6 115.5H329l6.2-24.3h30.6l5.6 24.3h21.1L364.7 2.6h-28.3zm2.9 71.7l10.9-46.7h.3l10.7 46.7h-21.9zm99.8-53.8c8 0 13.4 4.8 13.4 19.7h22.1C473.8 14 461.7 1 439.1 1c-21.4 0-36.5 10.2-36.5 38.7V81c0 28.5 15 38.7 36.5 38.7 8.3 0 14.7-4.5 20.6-11.2l3.4 9.6h11.5V58.9H437v18.2h15.5v7c0 9.9-5.1 16-13.4 16-8.8 0-14.4-3.5-14.4-16.3v-47c0-12.8 5.6-16.3 14.4-16.3zm76.5 78.1V68.2h29.3V48.7h-29.3V22.1H554V2.6h-60.5v115.5h62.1V98.6zM66 2.6L36.5 118.1h21L86.9 2.6z"/></svg>