<svg xmlns="http://www.w3.org/2000/svg" viewBox="0 0 21 12"><path d="M18.1 7.6c.7.7 1.4 1.3 2.1 2.1.3.3.5.7.7 1.1.3.6 0 1.2-.5 1.2h-3.1c-.8.1-1.4-.3-1.9-.8-.4-.4-.8-.9-1.2-1.3-.2-.2-.3-.4-.6-.5-.4-.3-.8-.2-1 .2-.2.4-.3.9-.3 1.4 0 .7-.3.9-1 1-1.5.1-3-.2-4.4-1-1.2-.7-2.1-1.6-2.9-2.7-1.6-2.2-2.8-4.5-3.9-7C-.1.7 0 .4.6.4h3c.4 0 .7.3.9.6.5 1.3 1.2 2.6 2 3.8.2.3.4.6.8.9.4.2.6.2.8-.2.1-.3.2-.5.2-.8.1-.9.1-1.9 0-2.8-.1-.6-.4-1-1-1.1C6.9.7 7 .6 7.1.5c.2-.3.5-.5.9-.5h3.5c.5.1.7.4.7.9v3.9c0 .2.1.8.5 1 .3.1.5-.1.7-.3.8-.9 1.4-1.9 1.9-3l.6-1.5c.1-.4.4-.5.8-.5h3.6c.6.1.7.3.5.9-.3.9-.8 1.6-1.3 2.3-.6.8-1.1 1.5-1.7 2.3-.4.7-.4 1 .3 1.6z" fill="#00badb"/></svg>